<svg xmlns="http://www.w3.org/2000/svg" version="1.1" xmlns:xlink="http://www.w3.org/1999/xlink" xmlns:svgjs="http://svgjs.dev/svgjs" width="1000" height="1000" viewBox="0 0 1000 1000"><rect width="1000" height="1000" fill="#ffffff"></rect><g transform="matrix(0.7,0,0,0.7,149.57575757575756,451.0000530168948)"><svg viewBox="0 0 396 56" data-background-color="#ffffff" preserveAspectRatio="xMidYMid meet" height="141" width="1000" xmlns="http://www.w3.org/2000/svg" xmlns:xlink="http://www.w3.org/1999/xlink"><g id="tight-bounds" transform="matrix(1,0,0,1,0.2400000000000091,-0.19861164079134142)"><svg viewBox="0 0 395.52 56.39722328158271" height="56.39722328158271" width="395.52"><g><svg viewBox="0 0 485.26342976875287 69.1937449409764" height="56.39722328158271" width="395.52"><g><rect width="3.3507092370204883" height="69.1937449409764" x="77.62123038246413" y="0" fill="#ea3c12" opacity="1" stroke-width="0" stroke="transparent" fill-opacity="1" class="rect-r$-0" data-fill-palette-color="primary" rx="1%" id="r$-0" data-palette-color="#ea3c12"></rect></g><g transform="matrix(1,0,0,1,89.7434297687529,0.1721237436342662)"><svg viewBox="0 0 395.52 68.84949745370787" height="68.84949745370787" width="395.52"><g id="textblocktransform"><svg viewBox="0 0 395.52 68.84949745370787" height="68.84949745370787" width="395.52" id="textblock"><g><svg viewBox="0 0 395.52 37.15536585365854" height="37.15536585365854" width="395.52"><g transform="matrix(1,0,0,1,0,0)"><svg width="395.52" viewBox="0.98 -35.45 384.34999999999997 36.11" height="37.15536585365854" data-palette-color="#ea3c12"><path d="M19.24 0L2.44 0Q2.25 0 2.25-0.24L2.25-0.24 2.25-1.27Q2.25-1.29 2.27-1.38 2.29-1.46 2.44-1.46L2.44-1.46Q3.27-1.46 3.99-1.71 4.71-1.95 5.25-2.37 5.79-2.78 6.1-3.37 6.42-3.96 6.42-4.64L6.42-4.64 6.42-29.44Q6.42-30.66 6.18-31.36 5.93-32.06 5.46-32.41 4.98-32.76 4.26-32.85 3.54-32.93 2.59-32.93L2.59-32.93 1.49-32.93Q1.22-32.93 1.1-33.24 0.98-33.54 0.98-33.76L0.98-33.76Q0.98-33.89 1.03-34.13 1.07-34.38 1.29-34.42L1.29-34.42Q1.32-34.42 1.45-34.42 1.59-34.42 1.93-34.44 2.27-34.45 2.84-34.46 3.42-34.47 4.35-34.5L4.35-34.5Q5.69-34.52 7.21-34.57 8.74-34.62 10.3-34.67 11.87-34.72 13.39-34.75 14.92-34.79 16.26-34.79L16.26-34.79 19.7-34.79Q21.66-34.79 23.51-34.13 25.37-33.47 26.81-32.19 28.25-30.91 29.13-29 30-27.1 30-24.61L30-24.61Q30-23.05 29.54-21.62 29.08-20.19 28.28-18.99 27.49-17.8 26.45-16.83 25.42-15.87 24.28-15.21 23.14-14.55 21.97-14.21L21.97-14.21Q20.95-13.94 20.04-13.94L20.04-13.94Q19.9-13.94 19.78-13.94L19.78-13.94 13.94-14.23Q13.92-14.23 13.75-14.23 13.57-14.23 13.5-14.18L13.5-14.18Q13.43-14.14 13.4-14.09 13.38-14.04 13.38-13.89L13.38-13.89 13.38-4.71Q13.38-3.76 13.9-3.14 14.43-2.51 15.27-2.15 16.11-1.78 17.16-1.62 18.21-1.46 19.24-1.46L19.24-1.46Q19.38-1.46 19.41-1.39 19.43-1.32 19.43-1.27L19.43-1.27 19.43-0.2Q19.43-0.15 19.4-0.07 19.36 0 19.24 0L19.24 0ZM13.38-17.72L13.43-16.99Q13.45-16.8 13.54-16.64 13.62-16.48 13.89-16.46L13.89-16.46Q13.99-16.46 14.25-16.43 14.5-16.41 14.84-16.38 15.19-16.36 15.59-16.33 15.99-16.31 16.38-16.31L16.38-16.31Q18.02-16.31 19.25-16.97 20.48-17.63 21.3-18.81 22.12-20 22.52-21.62 22.92-23.24 22.92-25.2L22.92-25.2Q22.92-29.22 21.31-31.1 19.7-32.98 16.58-32.98L16.58-32.98Q16.24-32.98 15.94-32.97 15.65-32.96 15.36-32.95 15.06-32.93 14.73-32.92 14.4-32.91 13.99-32.89L13.99-32.89Q13.84-32.89 13.61-32.82 13.38-32.76 13.38-32.5L13.38-32.5 13.38-17.72ZM36.91-30.15L36.91-30.15Q36.91-30.86 36.58-31.41 36.25-31.96 35.69-32.32 35.13-32.69 34.4-32.89 33.66-33.08 32.83-33.08L32.83-33.08Q32.64-33.08 32.64-33.28L32.64-33.28 32.64-34.23Q32.64-34.42 32.81-34.42L32.81-34.42 48.24-34.42Q48.36-34.42 48.4-34.35 48.44-34.28 48.44-34.23L48.44-34.23 48.44-33.28Q48.44-33.23 48.4-33.15 48.36-33.08 48.24-33.08L48.24-33.08Q47.51-33.08 46.74-32.98 45.97-32.89 45.32-32.54 44.68-32.2 44.27-31.56 43.87-30.91 43.87-29.81L43.87-29.81 43.87-12.7Q43.87-7.81 46.36-5.14 48.85-2.47 53.81-2.47L53.81-2.47Q55.86-2.47 57.74-3.04 59.62-3.61 61.06-4.81 62.5-6.01 63.35-7.86 64.21-9.72 64.21-12.28L64.21-12.28 64.21-27.44Q64.21-28.27 64.15-29.15 64.08-30.03 63.74-30.81 63.4-31.59 62.67-32.17 61.94-32.74 60.59-32.96L60.59-32.96Q59.98-33.06 59.58-33.07 59.18-33.08 59.06-33.08L59.06-33.08Q58.86-33.08 58.86-33.28L58.86-33.28 58.86-34.23Q58.86-34.42 59.06-34.42L59.06-34.42 71.8-34.42Q71.92-34.42 71.96-34.35 71.99-34.28 71.99-34.23L71.99-34.23 71.99-33.28Q71.99-33.23 71.95-33.15 71.9-33.08 71.8-33.08L71.8-33.08Q70.92-33.08 70.25-32.95 69.58-32.81 69.24-32.67L69.24-32.67Q68.82-32.5 68.48-32.14 68.14-31.79 67.91-31.38 67.67-30.98 67.55-30.55 67.43-30.13 67.43-29.81L67.43-29.81 67.43-14.18Q67.43-10.74 66.53-8 65.62-5.25 63.8-3.33 61.98-1.42 59.23-0.38 56.47 0.66 52.78 0.66L52.78 0.66Q51.02 0.66 49.16 0.39 47.29 0.12 45.52-0.46 43.75-1.05 42.19-1.98 40.62-2.91 39.45-4.2 38.28-5.49 37.6-7.18 36.91-8.86 36.91-10.99L36.91-10.99 36.91-30.15ZM77.46-0.9L75.9-0.66Q75.58-0.66 75.51-1.17L75.51-1.17Q75.24-3.47 75.09-4.74 74.95-6.01 74.89-6.64 74.82-7.28 74.81-7.46 74.8-7.64 74.8-7.71L74.8-7.71Q74.8-7.98 75.04-8.3 75.29-8.62 75.63-8.62L75.63-8.62Q75.87-8.62 76.15-8.33 76.44-8.03 76.69-7.64 76.95-7.25 77.13-6.86 77.31-6.47 77.36-6.3L77.36-6.3Q78-4.96 78.74-4.04 79.49-3.13 80.44-2.58 81.39-2.03 82.59-1.78 83.78-1.54 85.32-1.54L85.32-1.54Q87.93-1.54 89.39-2.78 90.84-4.03 90.84-6.79L90.84-6.79Q90.84-8.37 90.14-9.67 89.45-10.96 88.33-12.07 87.2-13.18 85.76-14.18 84.32-15.19 82.81-16.21 81.29-17.24 79.85-18.35 78.41-19.46 77.29-20.8 76.17-22.14 75.47-23.78 74.78-25.42 74.78-27.47L74.78-27.47Q74.78-28.71 75.23-29.79 75.68-30.86 76.44-31.74 77.19-32.62 78.21-33.31 79.22-34.01 80.37-34.48 81.51-34.96 82.7-35.21 83.88-35.45 85-35.45L85-35.45Q85.91-35.45 86.82-35.29 87.74-35.13 88.63-34.91 89.52-34.69 90.42-34.44 91.33-34.18 92.21-33.96L92.21-33.96 93.82-34.11Q94.04-34.11 94.1-33.92 94.16-33.74 94.18-33.59L94.18-33.59 94.89-27.86Q94.89-27.73 94.58-27.69 94.26-27.64 94.09-27.64L94.09-27.64Q93.94-27.64 93.65-27.67 93.35-27.71 93.31-27.76L93.31-27.76Q93.23-27.83 93.12-28.06 93.01-28.3 92.89-28.58 92.77-28.86 92.63-29.15 92.5-29.44 92.35-29.66L92.35-29.66Q91.18-31.47 89.35-32.36 87.52-33.25 85.32-33.25L85.32-33.25Q84.37-33.25 83.54-33.03 82.71-32.81 82.1-32.34 81.49-31.86 81.14-31.13 80.78-30.4 80.78-29.37L80.78-29.37Q80.78-27.88 81.48-26.67 82.17-25.46 83.31-24.4 84.44-23.34 85.9-22.34 87.35-21.34 88.85-20.3 90.35-19.26 91.8-18.09 93.26-16.92 94.39-15.5 95.53-14.09 96.22-12.35 96.92-10.62 96.92-8.45L96.92-8.45Q96.92-7.01 96.42-5.76 95.92-4.52 95.06-3.5 94.21-2.49 93.06-1.71 91.91-0.93 90.61-0.4 89.3 0.12 87.92 0.39 86.54 0.66 85.22 0.66L85.22 0.66Q83.56 0.66 82.33 0.42 81.1 0.17 80.21-0.13 79.32-0.44 78.71-0.68 78.1-0.93 77.68-0.93L77.68-0.93Q77.53-0.93 77.46-0.9L77.46-0.9ZM113.96-30.69L113.96-30.69Q113.96-31.2 113.75-31.26 113.54-31.32 113.25-31.37L113.25-31.37 104.97-31.37Q104.07-31.18 103.56-30.65 103.04-30.13 102.75-29.42 102.46-28.71 102.31-27.89 102.17-27.08 101.99-26.32L101.99-26.32Q101.95-26.1 101.9-25.79 101.85-25.49 101.8-25.44L101.8-25.44Q101.75-25.37 101.63-25.37L101.63-25.37 100.82-25.37Q100.68-25.37 100.68-25.46L100.68-25.46 100.68-26.27 101.58-34.62Q101.63-34.89 101.8-35.13 101.97-35.38 102.34-35.38L102.34-35.38Q102.51-35.38 102.67-35.28 102.82-35.18 102.97-35.05 103.12-34.91 103.25-34.79 103.39-34.67 103.53-34.62L103.53-34.62Q103.83-34.5 104.08-34.46 104.34-34.42 104.66-34.42L104.66-34.42 130.24-34.42Q130.56-34.42 130.82-34.46 131.07-34.5 131.36-34.62L131.36-34.62Q131.51-34.67 131.65-34.79 131.78-34.91 131.93-35.05 132.07-35.18 132.23-35.28 132.39-35.38 132.56-35.38L132.56-35.38Q132.93-35.38 133.1-35.13 133.27-34.89 133.32-34.62L133.32-34.62 134.22-26.27 134.22-25.46Q134.22-25.37 134.07-25.37L134.07-25.37 133.27-25.37Q133.15-25.37 133.1-25.44L133.1-25.44Q133.05-25.49 133-25.79 132.95-26.1 132.9-26.32L132.9-26.32Q132.73-27.08 132.59-27.89 132.44-28.71 132.15-29.42 131.85-30.13 131.34-30.65 130.83-31.18 129.92-31.37L129.92-31.37 121.62-31.37Q121.33-31.32 121.12-31.26 120.92-31.2 120.92-30.69L120.92-30.69 120.92-4.76Q120.92-4.03 121.28-3.45 121.65-2.88 122.27-2.44 122.89-2 123.74-1.73 124.58-1.46 125.53-1.37L125.53-1.37Q125.8-1.34 126.21-1.34 126.63-1.34 126.92-1.34L126.92-1.34Q127.04-1.34 127.08-1.27 127.12-1.2 127.12-1.15L127.12-1.15 127.12-0.2Q127.12-0.15 127.08-0.07 127.04 0 126.92 0L126.92 0 107.95 0Q107.83 0 107.79-0.07 107.76-0.15 107.76-0.2L107.76-0.2 107.76-1.15Q107.76-1.2 107.79-1.27 107.83-1.34 107.95-1.34L107.95-1.34Q108.22-1.34 108.65-1.34 109.07-1.34 109.34-1.37L109.34-1.37Q110.3-1.46 111.14-1.73 111.98-2 112.6-2.44 113.22-2.88 113.59-3.45 113.96-4.03 113.96-4.76L113.96-4.76 113.96-30.69ZM131.29-0.2L131.29-1.15Q131.29-1.34 131.48-1.34L131.48-1.34Q131.95-1.37 132.57-1.48 133.19-1.59 133.84-1.94 134.49-2.29 135.1-2.99 135.71-3.69 136.12-4.91L136.12-4.91 145.94-33.37Q145.94-33.35 145.95-33.4 145.96-33.45 145.96-33.5L145.96-33.5Q145.96-33.67 145.83-33.92 145.69-34.18 145.69-34.3L145.69-34.3Q145.69-34.42 145.79-34.42L145.79-34.42 152.87-34.42Q152.92-34.4 153.01-34.38 153.09-34.35 153.14-34.23L153.14-34.23 163.47-5.25Q163.71-4.57 163.93-4.08 164.15-3.59 164.46-3.21 164.76-2.83 165.22-2.53 165.69-2.22 166.42-1.9L166.42-1.9Q166.76-1.73 167.35-1.54 167.93-1.34 168.47-1.34L168.47-1.34Q168.59-1.34 168.63-1.27 168.67-1.2 168.67-1.12L168.67-1.12 168.67-0.2Q168.67-0.15 168.63-0.07 168.59 0 168.47 0L168.47 0 151.33 0Q151.21 0 151.17-0.07 151.14-0.15 151.14-0.2L151.14-0.2 151.14-1.15Q151.14-1.2 151.17-1.27 151.21-1.34 151.33-1.34L151.33-1.34Q151.43-1.34 151.53-1.35 151.63-1.37 151.67-1.37L151.67-1.37Q151.94-1.39 152.44-1.42 152.94-1.44 153.53-1.5 154.12-1.56 154.71-1.7 155.31-1.83 155.8-2.09 156.29-2.34 156.61-2.76 156.92-3.17 156.92-3.78L156.92-3.78Q156.92-3.93 156.87-4.13L156.87-4.13 153.68-12.94Q153.65-12.99 153.59-13.16 153.53-13.33 153.4-13.51 153.26-13.7 153.05-13.84 152.85-13.99 152.55-13.99L152.55-13.99 143.74-13.99Q143.42-13.99 143.2-13.84 142.98-13.7 142.84-13.53 142.69-13.35 142.6-13.18 142.52-13.01 142.52-12.99L142.52-12.99Q141.74-10.69 141.2-9.12 140.66-7.54 140.31-6.52 139.96-5.49 139.76-4.93 139.57-4.37 139.48-4.11 139.39-3.86 139.38-3.8 139.37-3.74 139.37-3.74L139.37-3.74Q139.37-3.66 139.39-3.58 139.42-3.49 139.44-3.42L139.44-3.42Q139.64-2.81 140.16-2.4 140.69-2 141.37-1.77 142.06-1.54 142.78-1.44 143.5-1.34 144.06-1.34L144.06-1.34 144.69-1.34Q144.81-1.34 144.85-1.27 144.89-1.2 144.89-1.15L144.89-1.15 144.89-0.2Q144.89-0.15 144.85-0.07 144.81 0 144.69 0L144.69 0 131.48 0Q131.29 0 131.29-0.2L131.29-0.2ZM147.16-26.39L144.08-17.5Q144.03-17.38 144.01-17.26 143.98-17.14 143.98-17.02L143.98-17.02Q143.98-16.87 144.06-16.78 144.13-16.7 144.35-16.7L144.35-16.7 151.67-16.7Q151.94-16.7 152.03-16.81 152.11-16.92 152.11-17.07L152.11-17.07Q152.11-17.19 152.09-17.29 152.07-17.38 152.02-17.5L152.02-17.5 148.77-26.42Q148.65-26.76 148.4-26.92 148.16-27.08 147.96-27.08L147.96-27.08Q147.77-27.08 147.52-26.89 147.28-26.71 147.16-26.39L147.16-26.39ZM174.84-4.27L174.84-30.15Q174.84-30.98 174.39-31.54 173.94-32.1 173.23-32.46 172.52-32.81 171.65-32.98 170.79-33.15 169.96-33.2L169.96-33.2Q169.76-33.2 169.76-33.4L169.76-33.4 169.76-34.23Q169.76-34.42 169.93-34.42L169.93-34.42 186.49-34.42Q186.61-34.42 186.65-34.35 186.68-34.28 186.68-34.23L186.68-34.23 186.68-33.4Q186.68-33.25 186.49-33.25L186.49-33.25Q185.78-33.25 184.96-33.13 184.14-33.01 183.43-32.67 182.73-32.32 182.26-31.71 181.8-31.1 181.8-30.1L181.8-30.1 181.8-20.07Q181.8-19.04 181.87-18.48 181.95-17.92 182.21-17.92L182.21-17.92Q182.36-17.92 182.49-17.93 182.63-17.94 182.75-18.02L182.75-18.02Q184.14-18.65 185.25-19.56 186.36-20.46 187.3-21.53 188.24-22.61 189.06-23.8 189.88-25 190.69-26.25L190.69-26.25Q191.13-26.93 191.61-27.6 192.1-28.27 192.5-28.91 192.91-29.54 193.18-30.14 193.44-30.74 193.44-31.32L193.44-31.32Q193.44-31.98 193.13-32.36 192.81-32.74 192.32-32.92 191.83-33.11 191.27-33.15 190.71-33.2 190.22-33.2L190.22-33.2 189.98-33.2Q189.86-33.2 189.82-33.28 189.78-33.35 189.78-33.4L189.78-33.4 189.78-34.23Q189.78-34.28 189.81-34.35 189.83-34.42 189.98-34.42L189.98-34.42 204.82-34.42Q204.94-34.42 204.98-34.35 205.02-34.28 205.02-34.23L205.02-34.23 205.02-33.4Q205.02-33.33 204.94-33.22 204.87-33.11 204.72-33.11L204.72-33.11Q203.23-33.06 202.03-32.86 200.82-32.67 199.82-32.2 198.82-31.74 197.97-30.92 197.13-30.1 196.37-28.83L196.37-28.83Q195.08-26.64 194.05-25.07 193.03-23.51 192.24-22.44 191.44-21.36 190.88-20.7 190.32-20.04 189.94-19.62 189.56-19.19 189.36-18.91 189.15-18.63 189.1-18.36L189.1-18.36Q189.22-18.12 189.66-17.71 190.1-17.31 190.82-16.65 191.54-15.99 192.54-15.01 193.54-14.04 194.81-12.61 196.08-11.18 197.62-9.24 199.16-7.3 200.94-4.76L200.94-4.76Q201.79-3.52 203.09-2.76 204.38-2 205.99-1.66L205.99-1.66Q206.82-1.46 207.31-1.37 207.8-1.27 208.09-1.23 208.39-1.2 208.57-1.18 208.75-1.17 208.97-1.17L208.97-1.17Q209.09-1.17 209.13-1.1 209.17-1.03 209.17-0.98L209.17-0.98 209.17-0.2Q209.17 0 208.97 0L208.97 0 190.81 0Q190.61 0 190.61-0.2L190.61-0.2 190.61-1.03Q190.61-1.2 190.81-1.22L190.81-1.22Q191.13-1.27 191.7-1.26 192.27-1.25 192.82-1.32 193.37-1.39 193.79-1.66 194.2-1.93 194.2-2.54L194.2-2.54Q194.15-2.95 193.65-3.76 193.15-4.57 192.42-5.53 191.69-6.49 190.84-7.5 190-8.5 189.29-9.3L189.29-9.3Q188.44-10.25 187.67-11.24 186.9-12.23 186.1-13.05 185.29-13.87 184.41-14.38 183.53-14.89 182.51-14.89L182.51-14.89 182.04-14.89Q181.85-14.89 181.82-14.81 181.8-14.72 181.8-14.55L181.8-14.55 181.8-4.22Q181.8-3.13 182.25-2.51 182.7-1.9 183.4-1.61 184.09-1.32 184.92-1.25 185.75-1.17 186.49-1.17L186.49-1.17Q186.61-1.17 186.65-1.1 186.68-1.03 186.68-0.98L186.68-0.98 186.68-0.2Q186.68-0.15 186.65-0.07 186.61 0 186.49 0L186.49 0 169.93 0Q169.76 0 169.76-0.2L169.76-0.2 169.76-1.03Q169.76-1.22 169.96-1.22L169.96-1.22Q170.79-1.25 171.65-1.43 172.52-1.61 173.23-1.97 173.94-2.32 174.39-2.88 174.84-3.44 174.84-4.27L174.84-4.27ZM209.41-0.2L209.41-1.15Q209.41-1.34 209.6-1.34L209.6-1.34Q210.07-1.37 210.69-1.48 211.31-1.59 211.96-1.94 212.61-2.29 213.22-2.99 213.83-3.69 214.24-4.91L214.24-4.91 224.06-33.37Q224.06-33.35 224.07-33.4 224.08-33.45 224.08-33.5L224.08-33.5Q224.08-33.67 223.95-33.92 223.81-34.18 223.81-34.3L223.81-34.3Q223.81-34.42 223.91-34.42L223.91-34.42 230.99-34.42Q231.04-34.4 231.13-34.38 231.21-34.35 231.26-34.23L231.26-34.23 241.59-5.25Q241.83-4.57 242.05-4.08 242.27-3.59 242.58-3.21 242.88-2.83 243.34-2.53 243.81-2.22 244.54-1.9L244.54-1.9Q244.88-1.73 245.47-1.54 246.05-1.34 246.59-1.34L246.59-1.34Q246.71-1.34 246.75-1.27 246.79-1.2 246.79-1.12L246.79-1.12 246.79-0.2Q246.79-0.15 246.75-0.07 246.71 0 246.59 0L246.59 0 229.45 0Q229.33 0 229.29-0.07 229.26-0.15 229.26-0.2L229.26-0.2 229.26-1.15Q229.26-1.2 229.29-1.27 229.33-1.34 229.45-1.34L229.45-1.34Q229.55-1.34 229.65-1.35 229.75-1.37 229.79-1.37L229.79-1.37Q230.06-1.39 230.56-1.42 231.06-1.44 231.65-1.5 232.24-1.56 232.83-1.7 233.43-1.83 233.92-2.09 234.41-2.34 234.73-2.76 235.04-3.17 235.04-3.78L235.04-3.78Q235.04-3.93 234.99-4.13L234.99-4.13 231.8-12.94Q231.77-12.99 231.71-13.16 231.65-13.33 231.52-13.51 231.38-13.7 231.17-13.84 230.97-13.99 230.67-13.99L230.67-13.99 221.86-13.99Q221.54-13.99 221.32-13.84 221.1-13.7 220.96-13.53 220.81-13.35 220.72-13.18 220.64-13.01 220.64-12.99L220.64-12.99Q219.86-10.69 219.32-9.12 218.78-7.54 218.43-6.52 218.08-5.49 217.88-4.93 217.69-4.37 217.6-4.11 217.51-3.86 217.5-3.8 217.49-3.74 217.49-3.74L217.49-3.74Q217.49-3.66 217.51-3.58 217.54-3.49 217.56-3.42L217.56-3.42Q217.76-2.81 218.28-2.4 218.81-2 219.49-1.77 220.18-1.54 220.9-1.44 221.62-1.34 222.18-1.34L222.18-1.34 222.81-1.34Q222.93-1.34 222.97-1.27 223.01-1.2 223.01-1.15L223.01-1.15 223.01-0.2Q223.01-0.15 222.97-0.07 222.93 0 222.81 0L222.81 0 209.6 0Q209.41 0 209.41-0.2L209.41-0.2ZM225.28-26.39L222.2-17.5Q222.15-17.38 222.13-17.26 222.1-17.14 222.1-17.02L222.1-17.02Q222.1-16.87 222.18-16.78 222.25-16.7 222.47-16.7L222.47-16.7 229.79-16.7Q230.06-16.7 230.15-16.81 230.23-16.92 230.23-17.07L230.23-17.07Q230.23-17.19 230.21-17.29 230.19-17.38 230.14-17.5L230.14-17.5 226.89-26.42Q226.77-26.76 226.52-26.92 226.28-27.08 226.08-27.08L226.08-27.08Q225.89-27.08 225.64-26.89 225.4-26.71 225.28-26.39L225.28-26.39ZM247.03-0.2L247.03-1.15Q247.03-1.34 247.22-1.34L247.22-1.34Q247.69-1.37 248.31-1.48 248.93-1.59 249.58-1.94 250.23-2.29 250.84-2.99 251.45-3.69 251.86-4.91L251.86-4.91 261.68-33.37Q261.68-33.35 261.69-33.4 261.7-33.45 261.7-33.5L261.7-33.5Q261.7-33.67 261.57-33.92 261.43-34.18 261.43-34.3L261.43-34.3Q261.43-34.42 261.53-34.42L261.53-34.42 268.61-34.42Q268.66-34.4 268.74-34.38 268.83-34.35 268.88-34.23L268.88-34.23 279.21-5.25Q279.45-4.57 279.67-4.08 279.89-3.59 280.19-3.21 280.5-2.83 280.96-2.53 281.43-2.22 282.16-1.9L282.16-1.9Q282.5-1.73 283.09-1.54 283.67-1.34 284.21-1.34L284.21-1.34Q284.33-1.34 284.37-1.27 284.41-1.2 284.41-1.12L284.41-1.12 284.41-0.2Q284.41-0.15 284.37-0.07 284.33 0 284.21 0L284.21 0 267.07 0Q266.95 0 266.91-0.07 266.88-0.15 266.88-0.2L266.88-0.2 266.88-1.15Q266.88-1.2 266.91-1.27 266.95-1.34 267.07-1.34L267.07-1.34Q267.17-1.34 267.27-1.35 267.37-1.37 267.41-1.37L267.41-1.37Q267.68-1.39 268.18-1.42 268.68-1.44 269.27-1.5 269.86-1.56 270.45-1.7 271.05-1.83 271.54-2.09 272.03-2.34 272.35-2.76 272.66-3.17 272.66-3.78L272.66-3.78Q272.66-3.93 272.61-4.13L272.61-4.13 269.42-12.94Q269.39-12.99 269.33-13.16 269.27-13.33 269.14-13.51 269-13.7 268.79-13.84 268.59-13.99 268.29-13.99L268.29-13.99 259.48-13.99Q259.16-13.99 258.94-13.84 258.72-13.7 258.58-13.53 258.43-13.35 258.34-13.18 258.26-13.01 258.26-12.99L258.26-12.99Q257.48-10.69 256.94-9.12 256.4-7.54 256.05-6.52 255.7-5.49 255.5-4.93 255.3-4.37 255.22-4.11 255.13-3.86 255.12-3.8 255.11-3.74 255.11-3.74L255.11-3.74Q255.11-3.66 255.13-3.58 255.16-3.49 255.18-3.42L255.18-3.42Q255.38-2.81 255.9-2.4 256.43-2 257.11-1.77 257.8-1.54 258.52-1.44 259.24-1.34 259.8-1.34L259.8-1.34 260.43-1.34Q260.55-1.34 260.59-1.27 260.63-1.2 260.63-1.15L260.63-1.15 260.63-0.2Q260.63-0.15 260.59-0.07 260.55 0 260.43 0L260.43 0 247.22 0Q247.03 0 247.03-0.2L247.03-0.2ZM262.9-26.39L259.82-17.5Q259.77-17.38 259.75-17.26 259.72-17.14 259.72-17.02L259.72-17.02Q259.72-16.87 259.8-16.78 259.87-16.7 260.09-16.7L260.09-16.7 267.41-16.7Q267.68-16.7 267.77-16.81 267.85-16.92 267.85-17.07L267.85-17.07Q267.85-17.19 267.83-17.29 267.8-17.38 267.76-17.5L267.76-17.5 264.51-26.42Q264.39-26.76 264.14-26.92 263.9-27.08 263.7-27.08L263.7-27.08Q263.51-27.08 263.26-26.89 263.02-26.71 262.9-26.39L262.9-26.39ZM285.7 0L285.7 0Q285.58 0 285.54-0.07 285.5-0.15 285.5-0.2L285.5-0.2 285.5-1.51Q285.5-1.56 285.53-1.64 285.55-1.71 285.7-1.71L285.7-1.71 286.28-1.71Q286.36-1.71 286.76-1.75 287.16-1.78 287.69-1.87 288.21-1.95 288.77-2.1 289.34-2.25 289.73-2.47L289.73-2.47Q290.58-2.95 291-3.72 291.41-4.49 291.41-5.44L291.41-5.44 291.41-29.81Q291.41-30.69 290.84-31.25 290.26-31.81 289.47-32.14 288.68-32.47 287.86-32.59 287.04-32.71 286.55-32.71L286.55-32.71 286.02-32.71Q285.89-32.71 285.86-32.8 285.82-32.89 285.82-32.91L285.82-32.91 285.82-34.23Q285.82-34.28 285.86-34.35 285.89-34.42 286.02-34.42L286.02-34.42 304.74-34.42Q304.86-34.42 304.9-34.35 304.94-34.28 304.94-34.23L304.94-34.23 304.94-32.91Q304.94-32.86 304.9-32.79 304.86-32.71 304.74-32.71L304.74-32.71 303.69-32.71Q302.32-32.71 301.15-32.5 299.98-32.28 299.25-32.01L299.25-32.01Q298.69-31.81 298.53-31.36 298.37-30.91 298.37-29.81L298.37-29.81 298.37-4.2Q298.42-3.78 298.81-3.42 299.2-3.05 299.69-3.05L299.69-3.05 308.23-3.05Q309.09-3.05 309.86-3.42 310.62-3.78 311.28-4.36 311.94-4.93 312.5-5.62 313.07-6.3 313.53-6.93 313.99-7.57 314.36-8.07 314.73-8.57 314.99-8.79L314.99-8.79Q315.12-8.86 315.28-8.94 315.43-9.01 315.65-9.01L315.65-9.01Q316.07-9.01 316.07-8.69L316.07-8.69Q316.07-8.54 316-8.4L316-8.4 311.94-0.44Q311.85-0.24 311.72-0.12 311.6 0 311.43 0L311.43 0 285.7 0ZM316.36-0.2L316.36-1.15Q316.36-1.34 316.55-1.34L316.55-1.34Q317.02-1.37 317.64-1.48 318.26-1.59 318.91-1.94 319.56-2.29 320.17-2.99 320.78-3.69 321.19-4.91L321.19-4.91 331.01-33.37Q331.01-33.35 331.02-33.4 331.03-33.45 331.03-33.5L331.03-33.5Q331.03-33.67 330.9-33.92 330.76-34.18 330.76-34.3L330.76-34.3Q330.76-34.42 330.86-34.42L330.86-34.42 337.94-34.42Q337.99-34.4 338.08-34.38 338.16-34.35 338.21-34.23L338.21-34.23 348.54-5.25Q348.78-4.57 349-4.08 349.22-3.59 349.53-3.21 349.83-2.83 350.29-2.53 350.76-2.22 351.49-1.9L351.49-1.9Q351.83-1.73 352.42-1.54 353-1.34 353.54-1.34L353.54-1.34Q353.66-1.34 353.7-1.27 353.74-1.2 353.74-1.12L353.74-1.12 353.74-0.2Q353.74-0.15 353.7-0.07 353.66 0 353.54 0L353.54 0 336.4 0Q336.28 0 336.24-0.07 336.21-0.15 336.21-0.2L336.21-0.2 336.21-1.15Q336.21-1.2 336.24-1.27 336.28-1.34 336.4-1.34L336.4-1.34Q336.5-1.34 336.6-1.35 336.7-1.37 336.75-1.37L336.75-1.37Q337.01-1.39 337.51-1.42 338.01-1.44 338.6-1.5 339.19-1.56 339.78-1.7 340.38-1.83 340.87-2.09 341.36-2.34 341.68-2.76 341.99-3.17 341.99-3.78L341.99-3.78Q341.99-3.93 341.95-4.13L341.95-4.13 338.75-12.94Q338.72-12.99 338.66-13.16 338.6-13.33 338.47-13.51 338.33-13.7 338.12-13.84 337.92-13.99 337.62-13.99L337.62-13.99 328.81-13.99Q328.49-13.99 328.27-13.84 328.05-13.7 327.91-13.53 327.76-13.35 327.68-13.18 327.59-13.01 327.59-12.99L327.59-12.99Q326.81-10.69 326.27-9.12 325.73-7.54 325.38-6.52 325.03-5.49 324.83-4.93 324.64-4.37 324.55-4.11 324.46-3.86 324.45-3.8 324.44-3.74 324.44-3.74L324.44-3.74Q324.44-3.66 324.46-3.58 324.49-3.49 324.51-3.42L324.51-3.42Q324.71-2.81 325.23-2.4 325.76-2 326.44-1.77 327.13-1.54 327.85-1.44 328.57-1.34 329.13-1.34L329.13-1.34 329.76-1.34Q329.88-1.34 329.92-1.27 329.96-1.2 329.96-1.15L329.96-1.15 329.96-0.2Q329.96-0.15 329.92-0.07 329.88 0 329.76 0L329.76 0 316.55 0Q316.36 0 316.36-0.2L316.36-0.2ZM332.23-26.39L329.15-17.5Q329.1-17.38 329.08-17.26 329.05-17.14 329.05-17.02L329.05-17.02Q329.05-16.87 329.13-16.78 329.2-16.7 329.42-16.7L329.42-16.7 336.75-16.7Q337.01-16.7 337.1-16.81 337.18-16.92 337.18-17.07L337.18-17.07Q337.18-17.19 337.16-17.29 337.14-17.38 337.09-17.5L337.09-17.5 333.84-26.42Q333.72-26.76 333.47-26.92 333.23-27.08 333.03-27.08L333.03-27.08Q332.84-27.08 332.59-26.89 332.35-26.71 332.23-26.39L332.23-26.39ZM362.94-4.76L362.94-12.06Q362.94-12.21 362.87-12.3L362.87-12.3 352.88-28.27Q352.47-28.93 351.99-29.6 351.51-30.27 350.94-30.87 350.37-31.47 349.69-31.92 349.02-32.37 348.24-32.57L348.24-32.57Q348.12-32.59 347.85-32.65 347.58-32.71 347.29-32.76 347-32.81 346.73-32.86 346.46-32.91 346.34-32.93L346.34-32.93Q346.09-32.96 345.87-33.24 345.65-33.52 345.65-33.74L345.65-33.74Q345.65-33.79 345.67-33.91 345.68-34.03 345.71-34.14 345.75-34.25 345.82-34.34 345.9-34.42 346.02-34.42L346.02-34.42 362.6-34.42Q362.87-34.42 362.94-34.18 363.01-33.94 363.01-33.74L363.01-33.74Q363.01-33.5 362.98-33.23 362.94-32.96 362.69-32.96L362.69-32.96Q362.04-32.91 361.45-32.86 360.86-32.81 360.45-32.63 360.03-32.45 359.79-32.08 359.55-31.71 359.55-31.05L359.55-31.05Q359.55-30.47 359.84-30L359.84-30 367.28-18.04Q367.55-17.63 367.64-17.53 367.72-17.43 367.92-17.43L367.92-17.43Q368.09-17.43 368.22-17.63 368.36-17.82 368.55-18.14L368.55-18.14 374.44-28.13Q374.78-28.69 375.13-29.37 375.49-30.05 375.49-30.76L375.49-30.76Q375.49-31.45 375.3-31.85 375.12-32.25 374.76-32.47 374.39-32.69 373.86-32.79 373.34-32.89 372.66-32.96L372.66-32.96Q372.39-32.98 372.34-33.25 372.29-33.52 372.29-33.74L372.29-33.74Q372.29-33.91 372.35-34.17 372.41-34.42 372.7-34.42L372.7-34.42 384.98-34.42Q385.18-34.42 385.25-34.14 385.33-33.86 385.33-33.74L385.33-33.74Q385.33-33.5 385.17-33.33 385.01-33.15 384.78-33.04 384.55-32.93 384.29-32.87 384.03-32.81 383.81-32.76L383.81-32.76Q382.59-32.5 381.7-31.87 380.81-31.25 379.96-30.32L379.96-30.32Q379.83-30.2 379.6-29.93 379.37-29.66 379.35-29.61L379.35-29.61 369.9-13.38 369.9-4.76Q369.9-3.3 370.65-2.49 371.41-1.68 373.34-1.49L373.34-1.49Q373.61-1.46 374.02-1.46 374.44-1.46 374.73-1.46L374.73-1.46Q374.85-1.46 374.89-1.39 374.93-1.32 374.93-1.27L374.93-1.27 374.93-0.2Q374.93-0.15 374.89-0.07 374.85 0 374.73 0L374.73 0 358.1 0Q357.98 0 357.95-0.07 357.91-0.15 357.91-0.2L357.91-0.2 357.91-1.27Q357.91-1.32 357.95-1.39 357.98-1.46 358.1-1.46L358.1-1.46Q358.37-1.46 358.8-1.46 359.23-1.46 359.5-1.49L359.5-1.49Q361.43-1.68 362.18-2.49 362.94-3.3 362.94-4.76L362.94-4.76Z" opacity="1" transform="matrix(1,0,0,1,0,0)" fill="#ea3c12" class="wordmark-text-0" data-fill-palette-color="primary" id="text-0"></path></svg></g></svg></g><g transform="matrix(1,0,0,1,0,45.92685600292683)"><svg viewBox="0 0 232.209792 22.922641450781033" height="22.922641450781033" width="232.209792"><g transform="matrix(1,0,0,1,0,0)"><svg width="232.209792" viewBox="-0.8 -40.95 540.9 53.400000000000006" height="22.922641450781033" data-palette-color="#ea9937"><path d="M-0.8-34.65L-0.8-37.15 12.5-37.15 12.5-34.65 8.05-34.05 16.3-10.6 18.15-4.5 19.8-10.7 27.25-34.05 23.3-34.65 23.3-37.15 34.45-37.15 34.45-34.65 31.25-34.05 19.4 0.4 15.05 0.4 2.25-34.05-0.8-34.65ZM41.65-32.75Q40.05-32.75 39.25-33.65 38.45-34.55 38.45-35.95L38.45-35.95Q38.45-37.55 39.42-38.6 40.4-39.65 42.1-39.65L42.1-39.65Q43.8-39.65 44.6-38.75 45.4-37.85 45.4-36.45L45.4-36.45Q45.4-34.75 44.42-33.75 43.45-32.75 41.7-32.75L41.7-32.75 41.65-32.75ZM39.65-2.9L39.65-23.9 35.85-24.8 35.85-27.45 43.6-28.4 43.7-28.4 44.85-27.5 44.85-2.85 48.85-2.45 48.85 0 35.6 0 35.6-2.45 39.65-2.9ZM63.2 0.55Q60.2 0.55 57.7-0.95 55.2-2.45 53.72-5.55 52.25-8.65 52.25-13.2L52.25-13.2Q52.25-17.45 54-20.95 55.75-24.45 59.02-26.48 62.3-28.5 66.75-28.5L66.75-28.5Q69.3-28.5 71.4-27.95L71.4-27.95 71.4-37.3 66.3-37.9 66.3-40.05 75.3-40.95 75.45-40.95 76.55-40.15 76.55-2.55 79.45-2.55 79.45-0.25Q77.85 0.1 76.67 0.3 75.5 0.5 74.2 0.5L74.2 0.5Q72.9 0.5 72.35 0.05 71.8-0.4 71.8-1.85L71.8-1.85 71.8-3.45Q70.4-1.75 68.12-0.6 65.85 0.55 63.2 0.55L63.2 0.55ZM65.2-3Q67.15-3 68.85-3.88 70.55-4.75 71.4-5.9L71.4-5.9 71.4-24.2Q71-24.8 69.52-25.28 68.05-25.75 66.4-25.75L66.4-25.75Q62.5-25.75 60.17-22.78 57.85-19.8 57.85-13.6L57.85-13.6Q57.85-8.2 59.9-5.6 61.95-3 65.2-3L65.2-3ZM87.49 12.45Q86.64 12.45 85.82 12.35 84.99 12.25 84.64 12.05L84.64 12.05 84.64 7.7Q84.94 7.9 85.82 8 86.69 8.1 87.49 8.1L87.49 8.1Q89.89 8.1 91.72 6.43 93.54 4.75 95.24 0L95.24 0 92.84 0 83.34-24.75 81.04-25.4 81.04-27.75 93.09-27.75 93.09-25.4 89.24-24.8 94.14-10.05 96.44-2.75 98.59-10.1 103.04-24.8 99.69-25.4 99.69-27.75 109.74-27.75 109.74-25.4 107.24-24.8Q99.89-2.3 98.59 0.75L98.59 0.75Q96.89 5.05 95.49 7.48 94.09 9.9 92.19 11.18 90.29 12.45 87.49 12.45L87.49 12.45ZM112.04-7.5Q112.04-12.2 116.74-14.43 121.44-16.65 128.64-16.8L128.64-16.8 128.64-18.2Q128.64-20.55 128.14-21.9 127.64-23.25 126.42-23.88 125.19-24.5 122.94-24.5L122.94-24.5Q120.39-24.5 118.37-23.78 116.34-23.05 114.34-22L114.34-22 113.09-24.6Q113.74-25.15 115.49-26.05 117.24-26.95 119.54-27.65 121.84-28.35 124.14-28.35L124.14-28.35Q127.69-28.35 129.77-27.38 131.84-26.4 132.74-24.25 133.64-22.1 133.64-18.5L133.64-18.5 133.64-2.45 136.59-2.45 136.59-0.25Q135.59 0 134.07 0.25 132.54 0.5 131.39 0.5L131.39 0.5Q129.99 0.5 129.49 0.08 128.99-0.35 128.99-1.8L128.99-1.8 128.99-3.45Q127.49-1.95 125.32-0.7 123.14 0.55 120.39 0.55L120.39 0.55Q116.79 0.55 114.42-1.53 112.04-3.6 112.04-7.5L112.04-7.5ZM122.54-2.85Q123.84-2.85 125.54-3.65 127.24-4.45 128.64-5.55L128.64-5.55 128.64-14.15Q123.19-14.15 120.42-12.48 117.64-10.8 117.64-8.1L117.64-8.1Q117.64-5.4 118.97-4.13 120.29-2.85 122.54-2.85L122.54-2.85ZM156.14-2.95L156.14-34.05 152.24-34.65 152.24-37.15 158.79-37.15Q160.34-37.15 163.24-37.35L163.24-37.35Q166.14-37.55 167.59-37.55L167.59-37.55Q176.89-37.55 181.41-32.88 185.94-28.2 185.94-19.75L185.94-19.75Q185.94-13.85 183.61-9.28 181.29-4.7 177.09-2.15 172.89 0.4 167.44 0.4L167.44 0.4Q166.24 0.4 163.34 0.2L163.34 0.2Q160.34 0 158.84 0L158.84 0 151.99 0 151.99-2.45 156.14-2.95ZM161.44-2.8Q163.19-2.4 165.94-2.4L165.94-2.4 167.44-2.4Q171.19-2.45 174.06-4.3 176.94-6.15 178.54-9.83 180.14-13.5 180.14-18.75L180.14-18.75Q180.14-26.65 176.71-30.75 173.29-34.85 166.39-34.85L166.39-34.85Q164.94-34.85 162.94-34.65L162.94-34.65Q162.09-34.5 161.44-34.5L161.44-34.5 161.44-2.8ZM189.83-7.5Q189.83-12.2 194.53-14.43 199.23-16.65 206.43-16.8L206.43-16.8 206.43-18.2Q206.43-20.55 205.93-21.9 205.43-23.25 204.21-23.88 202.98-24.5 200.73-24.5L200.73-24.5Q198.18-24.5 196.16-23.78 194.13-23.05 192.13-22L192.13-22 190.88-24.6Q191.53-25.15 193.28-26.05 195.03-26.95 197.33-27.65 199.63-28.35 201.93-28.35L201.93-28.35Q205.48-28.35 207.56-27.38 209.63-26.4 210.53-24.25 211.43-22.1 211.43-18.5L211.43-18.5 211.43-2.45 214.38-2.45 214.38-0.25Q213.38 0 211.86 0.25 210.33 0.5 209.18 0.5L209.18 0.5Q207.78 0.5 207.28 0.08 206.78-0.35 206.78-1.8L206.78-1.8 206.78-3.45Q205.28-1.95 203.11-0.7 200.93 0.55 198.18 0.55L198.18 0.55Q194.58 0.55 192.21-1.53 189.83-3.6 189.83-7.5L189.83-7.5ZM200.33-2.85Q201.63-2.85 203.33-3.65 205.03-4.45 206.43-5.55L206.43-5.55 206.43-14.15Q200.98-14.15 198.21-12.48 195.43-10.8 195.43-8.1L195.43-8.1Q195.43-5.4 196.76-4.13 198.08-2.85 200.33-2.85L200.33-2.85ZM228.68 0.55Q225.68 0.55 223.18-0.95 220.68-2.45 219.21-5.55 217.73-8.65 217.73-13.2L217.73-13.2Q217.73-17.45 219.48-20.95 221.23-24.45 224.51-26.48 227.78-28.5 232.23-28.5L232.23-28.5Q234.78-28.5 236.88-27.95L236.88-27.95 236.88-37.3 231.78-37.9 231.78-40.05 240.78-40.95 240.93-40.95 242.03-40.15 242.03-2.55 244.93-2.55 244.93-0.25Q243.33 0.1 242.16 0.3 240.98 0.5 239.68 0.5L239.68 0.5Q238.38 0.5 237.83 0.05 237.28-0.4 237.28-1.85L237.28-1.85 237.28-3.45Q235.88-1.75 233.61-0.6 231.33 0.55 228.68 0.55L228.68 0.55ZM230.68-3Q232.63-3 234.33-3.88 236.03-4.75 236.88-5.9L236.88-5.9 236.88-24.2Q236.48-24.8 235.01-25.28 233.53-25.75 231.88-25.75L231.88-25.75Q227.98-25.75 225.66-22.78 223.33-19.8 223.33-13.6L223.33-13.6Q223.33-8.2 225.38-5.6 227.43-3 230.68-3L230.68-3ZM248.93-7.5Q248.93-12.2 253.63-14.43 258.33-16.65 265.53-16.8L265.53-16.8 265.53-18.2Q265.53-20.55 265.03-21.9 264.53-23.25 263.3-23.88 262.08-24.5 259.83-24.5L259.83-24.5Q257.28-24.5 255.25-23.78 253.23-23.05 251.23-22L251.23-22 249.98-24.6Q250.63-25.15 252.38-26.05 254.13-26.95 256.43-27.65 258.73-28.35 261.03-28.35L261.03-28.35Q264.58-28.35 266.65-27.38 268.73-26.4 269.63-24.25 270.53-22.1 270.53-18.5L270.53-18.5 270.53-2.45 273.48-2.45 273.48-0.25Q272.48 0 270.95 0.25 269.43 0.5 268.28 0.5L268.28 0.5Q266.88 0.5 266.38 0.08 265.88-0.35 265.88-1.8L265.88-1.8 265.88-3.45Q264.38-1.95 262.2-0.7 260.03 0.55 257.28 0.55L257.28 0.55Q253.68 0.55 251.3-1.53 248.93-3.6 248.93-7.5L248.93-7.5ZM259.43-2.85Q260.73-2.85 262.43-3.65 264.13-4.45 265.53-5.55L265.53-5.55 265.53-14.15Q260.08-14.15 257.3-12.48 254.53-10.8 254.53-8.1L254.53-8.1Q254.53-5.4 255.85-4.13 257.18-2.85 259.43-2.85L259.43-2.85ZM285.53 0.5Q282.68 0.5 281.28-0.8 279.88-2.1 279.88-5.25L279.88-5.25 279.88-24.45 276.28-24.45 276.28-26.7Q276.53-26.75 277.68-27.05 278.83-27.35 279.23-27.6L279.23-27.6Q280.03-28.05 280.48-29.4L280.48-29.4Q280.88-30.35 281.43-32.45 281.98-34.55 282.08-34.95L282.08-34.95 285.03-34.95 285.13-27.75 293.48-27.75 293.48-24.45 285.13-24.45 285.13-9.1Q285.13-6.25 285.3-5.1 285.48-3.95 286.05-3.6 286.63-3.25 288.03-3.25L288.03-3.25Q289.38-3.25 291-3.6 292.63-3.95 293.53-4.35L293.53-4.35 294.28-2.1Q293.08-1.2 290.4-0.35 287.73 0.5 285.53 0.5L285.53 0.5ZM303.22-32.75Q301.62-32.75 300.82-33.65 300.02-34.55 300.02-35.95L300.02-35.95Q300.02-37.55 301-38.6 301.97-39.65 303.67-39.65L303.67-39.65Q305.37-39.65 306.17-38.75 306.97-37.85 306.97-36.45L306.97-36.45Q306.97-34.75 306-33.75 305.02-32.75 303.27-32.75L303.27-32.75 303.22-32.75ZM301.22-2.9L301.22-23.9 297.42-24.8 297.42-27.45 305.17-28.4 305.27-28.4 306.42-27.5 306.42-2.85 310.42-2.45 310.42 0 297.17 0 297.17-2.45 301.22-2.9ZM322.77-34.65L322.77-37.15 336.07-37.15 336.07-34.65 331.62-34.05 339.87-10.6 341.72-4.5 343.37-10.7 350.82-34.05 346.87-34.65 346.87-37.15 358.02-37.15 358.02-34.65 354.82-34.05 342.97 0.4 338.62 0.4 325.82-34.05 322.77-34.65ZM365.22-32.75Q363.62-32.75 362.82-33.65 362.02-34.55 362.02-35.95L362.02-35.95Q362.02-37.55 362.99-38.6 363.97-39.65 365.67-39.65L365.67-39.65Q367.37-39.65 368.17-38.75 368.97-37.85 368.97-36.45L368.97-36.45Q368.97-34.75 367.99-33.75 367.02-32.75 365.27-32.75L365.27-32.75 365.22-32.75ZM363.22-2.9L363.22-23.9 359.42-24.8 359.42-27.45 367.17-28.4 367.27-28.4 368.42-27.5 368.42-2.85 372.42-2.45 372.42 0 359.17 0 359.17-2.45 363.22-2.9ZM378.96-2.9L378.96-23.9 375.36-24.8 375.36-27.5 382.51-28.4 382.66-28.4 383.71-27.5 383.71-25.4 383.66-24.2Q385.46-25.8 388.41-27.1 391.36-28.4 394.06-28.4L394.06-28.4Q397.21-28.4 398.94-27.2 400.66-26 401.36-23.53 402.06-21.05 402.06-16.85L402.06-16.85 402.06-2.85 405.56-2.5 405.56 0 393.71 0 393.71-2.45 396.81-2.85 396.81-16.9Q396.81-19.85 396.41-21.53 396.01-23.2 394.91-24.03 393.81-24.85 391.71-24.85L391.71-24.85Q389.91-24.85 387.86-23.95 385.81-23.05 384.21-21.85L384.21-21.85 384.21-2.9 387.61-2.45 387.61 0 375.81 0 375.81-2.45 378.96-2.9ZM409.16-7.5Q409.16-12.2 413.86-14.43 418.56-16.65 425.76-16.8L425.76-16.8 425.76-18.2Q425.76-20.55 425.26-21.9 424.76-23.25 423.54-23.88 422.31-24.5 420.06-24.5L420.06-24.5Q417.51-24.5 415.49-23.78 413.46-23.05 411.46-22L411.46-22 410.21-24.6Q410.86-25.15 412.61-26.05 414.36-26.95 416.66-27.65 418.96-28.35 421.26-28.35L421.26-28.35Q424.81-28.35 426.89-27.38 428.96-26.4 429.86-24.25 430.76-22.1 430.76-18.5L430.76-18.5 430.76-2.45 433.71-2.45 433.71-0.25Q432.71 0 431.19 0.25 429.66 0.5 428.51 0.5L428.51 0.5Q427.11 0.5 426.61 0.08 426.11-0.35 426.11-1.8L426.11-1.8 426.11-3.45Q424.61-1.95 422.44-0.7 420.26 0.55 417.51 0.55L417.51 0.55Q413.91 0.55 411.54-1.53 409.16-3.6 409.16-7.5L409.16-7.5ZM419.66-2.85Q420.96-2.85 422.66-3.65 424.36-4.45 425.76-5.55L425.76-5.55 425.76-14.15Q420.31-14.15 417.54-12.48 414.76-10.8 414.76-8.1L414.76-8.1Q414.76-5.4 416.09-4.13 417.41-2.85 419.66-2.85L419.66-2.85ZM441.26 12.45Q440.41 12.45 439.58 12.35 438.76 12.25 438.41 12.05L438.41 12.05 438.41 7.7Q438.71 7.9 439.58 8 440.46 8.1 441.26 8.1L441.26 8.1Q443.66 8.1 445.48 6.43 447.31 4.75 449.01 0L449.01 0 446.61 0 437.11-24.75 434.81-25.4 434.81-27.75 446.86-27.75 446.86-25.4 443.01-24.8 447.91-10.05 450.21-2.75 452.36-10.1 456.81-24.8 453.46-25.4 453.46-27.75 463.51-27.75 463.51-25.4 461.01-24.8Q453.66-2.3 452.36 0.75L452.36 0.75Q450.66 5.05 449.26 7.48 447.86 9.9 445.96 11.18 444.06 12.45 441.26 12.45L441.26 12.45ZM465.81-7.5Q465.81-12.2 470.51-14.43 475.21-16.65 482.41-16.8L482.41-16.8 482.41-18.2Q482.41-20.55 481.91-21.9 481.41-23.25 480.18-23.88 478.96-24.5 476.71-24.5L476.71-24.5Q474.16-24.5 472.13-23.78 470.11-23.05 468.11-22L468.11-22 466.86-24.6Q467.51-25.15 469.26-26.05 471.01-26.95 473.31-27.65 475.61-28.35 477.91-28.35L477.91-28.35Q481.46-28.35 483.53-27.38 485.61-26.4 486.51-24.25 487.41-22.1 487.41-18.5L487.41-18.5 487.41-2.45 490.36-2.45 490.36-0.25Q489.36 0 487.83 0.25 486.31 0.5 485.16 0.5L485.16 0.5Q483.76 0.5 483.26 0.08 482.76-0.35 482.76-1.8L482.76-1.8 482.76-3.45Q481.26-1.95 479.08-0.7 476.91 0.55 474.16 0.55L474.16 0.55Q470.56 0.55 468.18-1.53 465.81-3.6 465.81-7.5L465.81-7.5ZM476.31-2.85Q477.61-2.85 479.31-3.65 481.01-4.45 482.41-5.55L482.41-5.55 482.41-14.15Q476.96-14.15 474.18-12.48 471.41-10.8 471.41-8.1L471.41-8.1Q471.41-5.4 472.73-4.13 474.06-2.85 476.31-2.85L476.31-2.85ZM493.8 0L493.8-2.45 496.85-2.9 496.85-23.9 493.25-24.8 493.25-27.5 500.4-28.4 501.3-27.75 501.6-25.75 501.55-24.15Q503.3-25.75 506.33-27.08 509.35-28.4 511.75-28.4L511.75-28.4Q514.45-28.4 516.1-27.5 517.75-26.6 518.6-24.7L518.6-24.7Q520.2-26.05 523.08-27.23 525.95-28.4 528.45-28.4L528.45-28.4Q531.55-28.4 533.3-27.23 535.05-26.05 535.78-23.58 536.5-21.1 536.5-16.95L536.5-16.95 536.5-2.9 540.1-2.45 540.1 0 528.2 0 528.2-2.45 531.3-2.9 531.3-16.8Q531.3-19.7 530.88-21.43 530.45-23.15 529.28-24 528.1-24.85 525.9-24.85L525.9-24.85Q524.25-24.85 522.4-24.13 520.55-23.4 519.25-22.4L519.25-22.4Q519.7-20.45 519.7-16.85L519.7-16.85 519.7-2.9 523.25-2.45 523.25 0 511.15 0 511.15-2.45 514.45-2.9 514.45-16.9Q514.45-19.9 514.08-21.55 513.7-23.2 512.65-24.03 511.6-24.85 509.45-24.85L509.45-24.85Q507.65-24.85 505.63-23.95 503.6-23.05 502.1-21.85L502.1-21.85 502.1-2.9 505.45-2.45 505.45 0 493.8 0Z" opacity="1" transform="matrix(1,0,0,1,0,0)" fill="#ea9937" class="slogan-text-1" data-fill-palette-color="secondary" id="text-1"></path></svg></g></svg></g></svg></g></svg></g><g transform="matrix(1,0,0,1,0,0.1721237436342662)"><svg viewBox="0 0 68.84974023319585 68.84949745370787" height="68.84949745370787" width="68.84974023319585"><g><svg xmlns="http://www.w3.org/2000/svg" xmlns:xlink="http://www.w3.org/1999/xlink" version="1.1" x="0" y="0" viewBox="7.734947788353146 7.7352458618416104 84.53054425048146 84.53024617699299" enable-background="new 0 0 100 100" xml:space="preserve" height="68.84949745370787" width="68.84974023319585" class="icon-icon-0" data-fill-palette-color="accent" id="icon-0"><g fill="#ea9937" data-fill-palette-color="accent"><g fill="#ea9937" data-fill-palette-color="accent"><g fill="#ea9937" data-fill-palette-color="accent"><path d="M28.368 14.767C42.162 16.327 48.04 25.762 49.69 30.695c1.07 3.198 1.472 5.094 1.472 9.275 0 0.817 0.044 2.076-1.054 2.216-0.77 0.099-1.209-0.509-1.273-1.182-0.289-3.026-1.159-6.569-4.008-9.85-2.253-2.594-7.472-7.802-16.652-7.021-2.669 0.228-5.052-1.868-5.129-4.564C22.964 16.703 25.531 14.446 28.368 14.767z" fill="#ea9937" data-fill-palette-color="accent"></path><path d="M71.633 85.232c-13.794-1.561-19.671-10.995-21.322-15.929-1.07-3.198-1.472-5.094-1.472-9.275 0-0.817-0.044-2.076 1.054-2.216 0.77-0.099 1.209 0.509 1.273 1.182 0.289 3.026 1.159 6.569 4.008 9.85 2.253 2.594 7.472 7.802 16.652 7.021 2.669-0.228 5.052 1.868 5.129 4.564C77.037 83.296 74.47 85.553 71.633 85.232z" fill="#ea9937" data-fill-palette-color="accent"></path></g><g fill="#ea9937" data-fill-palette-color="accent"><path d="M14.768 71.633c1.56-13.794 10.995-19.672 15.928-21.322 3.198-1.07 5.094-1.472 9.276-1.472 0.817 0 2.076-0.045 2.216 1.054 0.098 0.77-0.509 1.209-1.182 1.273-3.026 0.288-6.569 1.159-9.849 4.008-2.594 2.254-7.802 7.473-7.021 16.652 0.228 2.669-1.868 5.052-4.564 5.129C16.704 77.036 14.447 74.47 14.768 71.633z" fill="#ea9937" data-fill-palette-color="accent"></path><path d="M85.233 28.367c-1.56 13.794-10.995 19.672-15.928 21.322-3.198 1.07-5.094 1.472-9.276 1.472-0.817 0-2.076 0.045-2.216-1.054-0.098-0.77 0.509-1.209 1.182-1.273 3.026-0.288 6.569-1.159 9.849-4.008 2.594-2.254 7.802-7.473 7.021-16.652-0.228-2.669 1.868-5.052 4.564-5.129C83.297 22.964 85.554 25.53 85.233 28.367z" fill="#ea9937" data-fill-palette-color="accent"></path></g></g><g fill="#ea9937" data-fill-palette-color="accent"><g fill="#ea9937" data-fill-palette-color="accent"><path d="M13.65 30.304c12.726-5.546 22.533-0.314 26.43 3.133 2.526 2.234 3.821 3.676 5.912 7.297 0.409 0.708 1.077 1.775 0.195 2.446-0.617 0.47-1.302 0.164-1.693-0.387-1.763-2.477-4.289-5.109-8.396-6.525-3.249-1.12-10.373-3.021-17.931 2.246-2.198 1.531-5.309 0.907-6.724-1.389C9.938 34.682 11.033 31.444 13.65 30.304z" fill="#ea9937" data-fill-palette-color="accent"></path><path d="M86.351 69.695c-12.726 5.546-22.533 0.314-26.43-3.133-2.526-2.234-3.821-3.676-5.912-7.297-0.409-0.708-1.077-1.775-0.196-2.446 0.618-0.47 1.302-0.164 1.694 0.387 1.763 2.477 4.289 5.109 8.396 6.525 3.249 1.12 10.373 3.021 17.931-2.245 2.198-1.532 5.309-0.908 6.724 1.388C90.063 65.317 88.968 68.555 86.351 69.695z" fill="#ea9937" data-fill-palette-color="accent"></path></g><g fill="#ea9937" data-fill-palette-color="accent"><path d="M30.304 86.351c-5.546-12.726-0.314-22.533 3.133-26.43 2.235-2.525 3.676-3.821 7.298-5.912 0.708-0.409 1.775-1.076 2.445-0.195 0.47 0.617 0.164 1.302-0.387 1.693-2.477 1.764-5.109 4.289-6.525 8.396-1.12 3.248-3.021 10.372 2.246 17.931 1.531 2.198 0.908 5.31-1.389 6.725C34.683 90.062 31.445 88.968 30.304 86.351z" fill="#ea9937" data-fill-palette-color="accent"></path><path d="M69.696 13.649c5.546 12.726 0.314 22.533-3.133 26.43-2.234 2.526-3.675 3.821-7.297 5.913-0.708 0.408-1.775 1.076-2.446 0.195-0.47-0.618-0.163-1.303 0.388-1.694 2.477-1.763 5.109-4.288 6.525-8.396 1.12-3.249 3.021-10.372-2.246-17.932-1.532-2.198-0.908-5.309 1.388-6.724C65.318 9.938 68.556 11.032 69.696 13.649z" fill="#ea9937" data-fill-palette-color="accent"></path></g></g><g fill="#ea9937" data-fill-palette-color="accent"><g fill="#ea9937" data-fill-palette-color="accent"><path d="M8.671 51.118c8.248-11.166 19.357-11.539 24.456-10.502 3.305 0.672 5.147 1.272 8.769 3.363 0.708 0.408 1.82 0.999 1.392 2.021-0.299 0.716-1.045 0.793-1.66 0.512-2.765-1.263-6.269-2.28-10.533-1.453-3.374 0.654-10.494 2.57-14.406 10.911-1.138 2.425-4.144 3.44-6.518 2.159C7.646 56.766 6.976 53.414 8.671 51.118z" fill="#ea9937" data-fill-palette-color="accent"></path><path d="M91.329 48.882C83.081 60.047 71.971 60.42 66.874 59.383c-3.305-0.672-5.147-1.272-8.769-3.363-0.708-0.408-1.82-0.999-1.393-2.021 0.3-0.716 1.046-0.793 1.66-0.512 2.766 1.264 6.269 2.28 10.534 1.453 3.373-0.654 10.493-2.569 14.406-10.91 1.138-2.426 4.144-3.441 6.517-2.16C92.354 43.233 93.025 46.585 91.329 48.882z" fill="#ea9937" data-fill-palette-color="accent"></path></g><g fill="#ea9937" data-fill-palette-color="accent"><path d="M51.119 91.329C39.953 83.081 39.58 71.972 40.617 66.874c0.673-3.305 1.272-5.147 3.364-8.77 0.409-0.708 1-1.819 2.02-1.392 0.716 0.3 0.793 1.045 0.512 1.66-1.263 2.765-2.28 6.269-1.453 10.533 0.654 3.374 2.57 10.493 10.911 14.406 2.425 1.138 3.44 4.144 2.159 6.518C56.766 92.354 53.415 93.025 51.119 91.329z" fill="#ea9937" data-fill-palette-color="accent"></path><path d="M48.882 8.672c11.166 8.247 11.538 19.356 10.501 24.455-0.672 3.305-1.271 5.147-3.362 8.77-0.409 0.707-1 1.819-2.021 1.392-0.716-0.3-0.792-1.046-0.511-1.661 1.263-2.765 2.28-6.268 1.453-10.533-0.655-3.373-2.57-10.492-10.911-14.406-2.426-1.137-3.44-4.144-2.159-6.517C43.234 7.646 46.585 6.976 48.882 8.672z" fill="#ea9937" data-fill-palette-color="accent"></path></g></g></g></svg></g></svg></g></svg></g><defs></defs></svg><rect width="395.52" height="56.39722328158271" fill="none" stroke="none" visibility="hidden"></rect></g></svg></g></svg>